HIERARCHY
ROOT Hips
{
	OFFSET 0.000000 121.760803 0.000000
	CHANNELS 6 Xposition Yposition Zposition Xrotation Yrotation Zrotation 
	JOINT Spine
	{
		OFFSET 0.072000 7.257294 -0.789700
		CHANNELS 3 Xrotation Yrotation Zrotation
		JOINT Spine1
		{
			OFFSET 0.000000 12.508769 -0.658067
			CHANNELS 3 Xrotation Yrotation Zrotation
			JOINT Spine1_split
			{
				OFFSET 0.000000 12.508769 -0.658067
				CHANNELS 3 Xrotation Yrotation Zrotation
				JOINT Spine2
				{
					OFFSET 0.000000 12.508769 -0.658067
					CHANNELS 3 Xrotation Yrotation Zrotation
					JOINT Neck
					{
						OFFSET 0.000000 14.033295 7.520400
						CHANNELS 3 Xrotation Yrotation Zrotation
						JOINT Head
						{
							OFFSET 0.000000 8.198502 5.703100
							CHANNELS 3 Xrotation Yrotation Zrotation
							JOINT HeadTop_End
							{
								OFFSET 0.000000 17.760803 13.332701
								CHANNELS 3 Xrotation Yrotation Zrotation
								End Site
								{
									OFFSET 0.000000 0.000000 0.000000
								}
							}
						}
					}
					JOINT LeftShoulder
					{
						OFFSET 6.292450 5.785301 -0.669000
						CHANNELS 3 Xrotation Yrotation Zrotation
						JOINT LeftShoulder_split
						{
							OFFSET 6.292450 5.785301 -0.669000
							CHANNELS 3 Xrotation Yrotation Zrotation
							JOINT LeftArm
							{
								OFFSET 13.907140 -6.093903 1.965100
								CHANNELS 3 Xrotation Yrotation Zrotation
								JOINT LeftForeArm
								{
									OFFSET 34.140198 0.000000 0.000000
									CHANNELS 3 Xrotation Yrotation Zrotation
									JOINT LeftHand
									{
										OFFSET 40.960209 0.000000 0.000000
										CHANNELS 3 Xrotation Yrotation Zrotation
										JOINT LeftHandThumb1
										{
											OFFSET 10.006996 -7.170425 9.573125
											CHANNELS 3 Xrotation Yrotation Zrotation
											JOINT LeftHandThumb2
											{
												OFFSET 1.835007 -1.059448 1.059443
												CHANNELS 3 Xrotation Yrotation Zrotation
												JOINT LeftHandThumb3
												{
													OFFSET 2.112267 -1.219513 1.219518
													CHANNELS 3 Xrotation Yrotation Zrotation
													JOINT LeftHandThumb4
													{
														OFFSET 4.843811 -2.796570 2.796576
														CHANNELS 3 Xrotation Yrotation Zrotation
														End Site
														{
															OFFSET 0.000000 0.000000 0.000000
														}
													}
												}
											}
										}
										JOINT LeftHandIndex1
										{
											OFFSET 18.389847 -0.922348 4.596882
											CHANNELS 3 Xrotation Yrotation Zrotation
											JOINT LeftHandIndex2
											{
												OFFSET 4.711273 0.000000 0.000000
												CHANNELS 3 Xrotation Yrotation Zrotation
												JOINT LeftHandIndex3
												{
													OFFSET 2.886131 0.000000 0.000000
													CHANNELS 3 Xrotation Yrotation Zrotation
													JOINT LeftHandIndex4
													{
														OFFSET 6.145912 0.000000 0.000000
														CHANNELS 3 Xrotation Yrotation Zrotation
														End Site
														{
															OFFSET 0.000000 0.000000 0.000000
														}
													}
												}
											}
										}
										JOINT LeftHandMiddle1
										{
											OFFSET 18.013008 0.000000 0.000000
											CHANNELS 3 Xrotation Yrotation Zrotation
											JOINT LeftHandMiddle2
											{
												OFFSET 4.946693 0.000000 0.000000
												CHANNELS 3 Xrotation Yrotation Zrotation
												JOINT LeftHandMiddle3
												{
													OFFSET 3.342232 0.000000 0.000000
													CHANNELS 3 Xrotation Yrotation Zrotation
													JOINT LeftHandMiddle4
													{
														OFFSET 4.461754 0.000000 0.000000
														CHANNELS 3 Xrotation Yrotation Zrotation
														End Site
														{
															OFFSET 0.000000 0.000000 0.000000
														}
													}
												}
											}
										}
										JOINT LeftHandRing1
										{
											OFFSET 15.849892 -0.102921 -4.126150
											CHANNELS 3 Xrotation Yrotation Zrotation
											JOINT LeftHandRing2
											{
												OFFSET 3.527054 0.000000 0.000000
												CHANNELS 3 Xrotation Yrotation Zrotation
												JOINT LeftHandRing3
												{
													OFFSET 2.961098 0.000000 0.000000
													CHANNELS 3 Xrotation Yrotation Zrotation
													JOINT LeftHandRing4
													{
														OFFSET 4.927200 0.000000 0.000000
														CHANNELS 3 Xrotation Yrotation Zrotation
														End Site
														{
															OFFSET 0.000000 0.000000 0.000000
														}
													}
												}
											}
										}
										JOINT LeftHandPinky1
										{
											OFFSET 12.791824 -0.832031 -6.799156
											CHANNELS 3 Xrotation Yrotation Zrotation
											JOINT LeftHandPinky2
											{
												OFFSET 3.327133 0.000000 0.000000
												CHANNELS 3 Xrotation Yrotation Zrotation
												JOINT LeftHandPinky3
												{
													OFFSET 3.014900 0.000000 0.000000
													CHANNELS 3 Xrotation Yrotation Zrotation
													JOINT LeftHandPinky4
													{
														OFFSET 5.847786 0.000000 0.000000
														CHANNELS 3 Xrotation Yrotation Zrotation
														End Site
														{
															OFFSET 0.000000 0.000000 0.000000
														}
													}
												}
											}
										}
									}
								}
							}
						}
					}
					JOINT RightShoulder
					{
						OFFSET -6.292450 5.785301 -0.669000
						CHANNELS 3 Xrotation Yrotation Zrotation
						JOINT RightShoulder_split
						{
							OFFSET -6.292450 5.785301 -0.669000
							CHANNELS 3 Xrotation Yrotation Zrotation
							JOINT RightArm
							{
								OFFSET -13.907140 -6.093903 1.965100
								CHANNELS 3 Xrotation Yrotation Zrotation
								JOINT RightForeArm
								{
									OFFSET -34.140198 0.000000 0.000000
									CHANNELS 3 Xrotation Yrotation Zrotation
									JOINT RightHand
									{
										OFFSET -40.960209 0.000000 0.000000
										CHANNELS 3 Xrotation Yrotation Zrotation
										JOINT RightHandThumb1
										{
											OFFSET -10.007050 -7.170456 9.573117
											CHANNELS 3 Xrotation Yrotation Zrotation
											JOINT RightHandThumb2
											{
												OFFSET -1.835007 -1.059448 1.059443
												CHANNELS 3 Xrotation Yrotation Zrotation
												JOINT RightHandThumb3
												{
													OFFSET -2.112267 -1.219513 1.219518
													CHANNELS 3 Xrotation Yrotation Zrotation
													JOINT RightHandThumb4
													{
														OFFSET -4.843834 -2.796585 2.796590
														CHANNELS 3 Xrotation Yrotation Zrotation
														End Site
														{
															OFFSET 0.000000 0.000000 0.000000
														}
													}
												}
											}
										}
										JOINT RightHandIndex1
										{
											OFFSET -18.389870 -0.922424 4.596786
											CHANNELS 3 Xrotation Yrotation Zrotation
											JOINT RightHandIndex2
											{
												OFFSET -4.711273 0.000000 0.000000
												CHANNELS 3 Xrotation Yrotation Zrotation
												JOINT RightHandIndex3
												{
													OFFSET -2.886131 0.000000 0.000000
													CHANNELS 3 Xrotation Yrotation Zrotation
													JOINT RightHandIndex4
													{
														OFFSET -6.145920 0.000000 0.000000
														CHANNELS 3 Xrotation Yrotation Zrotation
														End Site
														{
															OFFSET 0.000000 0.000000 0.000000
														}
													}
												}
											}
										}
										JOINT RightHandMiddle1
										{
											OFFSET -18.013008 0.000000 0.000000
											CHANNELS 3 Xrotation Yrotation Zrotation
											JOINT RightHandMiddle2
											{
												OFFSET -4.946693 0.000000 0.000000
												CHANNELS 3 Xrotation Yrotation Zrotation
												JOINT RightHandMiddle3
												{
													OFFSET -3.342232 0.000000 0.000000
													CHANNELS 3 Xrotation Yrotation Zrotation
													JOINT RightHandMiddle4
													{
														OFFSET -4.461754 0.000000 0.000000
														CHANNELS 3 Xrotation Yrotation Zrotation
														End Site
														{
															OFFSET 0.000000 0.000000 0.000000
														}
													}
												}
											}
										}
										JOINT RightHandRing1
										{
											OFFSET -15.849876 -0.102936 -4.126237
											CHANNELS 3 Xrotation Yrotation Zrotation
											JOINT RightHandRing2
											{
												OFFSET -3.527054 0.000000 0.000000
												CHANNELS 3 Xrotation Yrotation Zrotation
												JOINT RightHandRing3
												{
													OFFSET -2.961098 0.000000 0.000000
													CHANNELS 3 Xrotation Yrotation Zrotation
													JOINT RightHandRing4
													{
														OFFSET -4.927200 0.000000 0.000000
														CHANNELS 3 Xrotation Yrotation Zrotation
														End Site
														{
															OFFSET 0.000000 0.000000 0.000000
														}
													}
												}
											}
										}
										JOINT RightHandPinky1
										{
											OFFSET -12.791786 -0.832077 -6.799222
											CHANNELS 3 Xrotation Yrotation Zrotation
											JOINT RightHandPinky2
											{
												OFFSET -3.327133 0.000000 0.000000
												CHANNELS 3 Xrotation Yrotation Zrotation
												JOINT RightHandPinky3
												{
													OFFSET -3.014900 0.000000 0.000000
													CHANNELS 3 Xrotation Yrotation Zrotation
													JOINT RightHandPinky4
													{
														OFFSET -5.847786 0.000000 0.000000
														CHANNELS 3 Xrotation Yrotation Zrotation
														End Site
														{
															OFFSET 0.000000 0.000000 0.000000
														}
													}
												}
											}
										}
									}
								}
							}
						}
					}
				}
			}
		}
	}
	JOINT LeftUpLeg
	{
		OFFSET 13.026900 -6.336304 -1.092800
		CHANNELS 3 Xrotation Yrotation Zrotation
		JOINT LeftLeg
		{
			OFFSET 0.524474 -46.096886 9.782700
			CHANNELS 3 Xrotation Yrotation Zrotation
			JOINT LeftFoot
			{
				OFFSET -0.524474 -53.427422 -12.948200
				CHANNELS 3 Xrotation Yrotation Zrotation
				JOINT LeftToeBase
				{
					OFFSET 0.192200 -14.009700 16.364100
					CHANNELS 3 Xrotation Yrotation Zrotation
					JOINT LeftToe_End
					{
						OFFSET -1.784700 -0.561700 9.474800
						CHANNELS 3 Xrotation Yrotation Zrotation
						End Site
						{
							OFFSET 0.000000 0.000000 0.000000
						}
					}
				}
			}
		}
	}
	JOINT RightUpLeg
	{
		OFFSET -12.883000 -6.336304 -1.092800
		CHANNELS 3 Xrotation Yrotation Zrotation
		JOINT RightLeg
		{
			OFFSET -0.524587 -46.096825 9.782800
			CHANNELS 3 Xrotation Yrotation Zrotation
			JOINT RightFoot
			{
				OFFSET 0.524587 -53.427383 -12.948300
				CHANNELS 3 Xrotation Yrotation Zrotation
				JOINT RightToeBase
				{
					OFFSET -0.192200 -14.009700 16.364100
					CHANNELS 3 Xrotation Yrotation Zrotation
					JOINT RightToe_End
					{
						OFFSET 1.784700 -0.561700 9.474800
						CHANNELS 3 Xrotation Yrotation Zrotation
						End Site
						{
							OFFSET 0.000000 0.000000 0.000000
						}
					}
				}
			}
		}
	}
}
MOTION
Frames: 4
Frame Time: 0.016667
0.830261 103.028252 -2.669811 34.049688 -24.213109 5.451537 11.510208 5.150320 -0.588193 5.818548 0.259713 -2.809618 0.000000 0.000000 0.000000 -10.931795 0.793514 3.196297 0.763625 9.298923 -8.496116 -32.953132 4.763627 2.047907 -0.000000 -0.000000 0.000000 1.952252 -2.052958 14.106894 0.000000 0.000000 0.000000 -76.027362 17.447754 -39.907634 -79.531795 -83.559489 -82.553163 -40.469755 -0.152853 8.942078 17.551590 -5.699218 -12.932269 10.850552 26.127722 8.644740 20.927027 51.115845 0.218664 -0.000003 -0.000001 0.000000 13.980896 1.201551 -55.004371 0.370811 1.161709 -65.441887 1.983962 2.148005 -57.665102 0.000000 0.000002 0.000001 7.504738 1.174512 -63.778517 1.807884 1.475657 -64.568012 0.130343 -0.912283 -43.272489 0.000000 0.000002 -0.000000 8.574308 2.179150 -75.148979 -0.207617 1.009271 -57.855056 0.443045 1.742143 -53.581301 0.000001 -0.000000 -0.000000 10.030091 13.637101 -84.750230 0.877119 0.062342 -64.595462 1.141228 1.253139 -55.016323 0.000000 -0.000003 -0.000000 4.985263 19.106686 8.633890 0.000000 0.000000 0.000000 -22.095483 5.720157 42.521329 29.456656 69.546871 -32.206186 0.332161 10.304449 -5.342093 18.329287 0.310715 -9.071062 -2.198347 -31.113564 7.361209 -6.566763 -4.138084 2.407571 -0.000001 -0.000001 -0.000001 2.375162 -3.668639 30.847009 -2.142097 -2.481818 41.032918 -1.899964 -4.827594 36.532940 0.000000 -0.000002 -0.000000 -1.972149 -5.717187 36.022028 0.289283 -5.113445 49.347926 -0.652821 -1.229474 38.485394 0.000002 -0.000001 0.000002 -3.257775 -8.572678 37.723336 4.044281 -4.071794 59.216920 2.113903 -3.170820 41.547467 0.000002 -0.000002 0.000001 -6.464754 -11.358782 54.840883 10.730561 -2.567733 66.401808 6.421426 -3.091709 46.889658 0.000000 -0.000001 0.000000 -78.168681 3.122060 23.621637 91.393218 4.427090 -5.407291 13.029241 -5.009802 1.387116 -0.000098 -0.000044 -0.000015 0.000001 -0.000000 -0.000000 -49.888030 3.280345 8.506420 47.100660 4.289529 0.396801 -16.888537 -1.743859 -0.488586 -12.494192 0.075599 -0.006351 -0.000000 -0.000002 0.000000 
0.276117 103.818596 6.135376 32.139670 -22.979393 5.198218 13.399091 5.734258 -2.794449 4.946198 0.681143 -1.790054 0.000000 0.000000 0.000000 -10.657563 0.747528 3.502206 -0.964056 8.765072 -7.245215 -30.630035 4.634938 1.209476 0.000000 0.000000 0.000000 1.850582 -1.530462 12.872930 0.000000 0.000000 0.000000 -74.590221 15.606149 -37.843384 -144.941477 -87.295616 -147.417858 -48.350851 2.730427 12.545423 17.551590 -5.699211 -12.932268 10.850549 26.127722 8.644745 20.927027 51.115841 0.218660 0.000001 -0.000003 0.000002 13.980894 1.201548 -55.004367 0.370803 1.161713 -65.441887 1.983965 2.148011 -57.665102 -0.000000 0.000001 0.000000 7.504739 1.174512 -63.778517 1.807880 1.475659 -64.568012 0.130345 -0.912282 -43.272489 0.000000 0.000001 -0.000000 8.574308 2.179148 -75.148979 -0.207609 1.009271 -57.855056 0.443045 1.742142 -53.581304 0.000000 -0.000000 -0.000001 10.030091 13.637101 -84.750230 0.877117 0.062342 -64.595462 1.141230 1.253137 -55.016327 -0.000000 -0.000004 0.000002 4.599372 20.091994 7.394495 0.000000 0.000000 0.000000 -22.228630 2.483212 40.725894 73.013725 78.448793 -77.195618 3.828294 11.723697 0.088469 16.754299 0.369580 -8.461184 -1.642450 -29.135760 6.903586 -5.717226 -4.655630 1.946945 -0.000002 -0.000001 -0.000000 2.171762 -3.424928 28.919438 -2.060055 -2.222315 38.754265 -1.947544 -4.379991 33.777840 -0.000001 -0.000001 0.000004 -1.682260 -5.183766 33.477366 0.193944 -4.713273 48.099644 -0.660769 -1.093565 34.870168 0.000000 -0.000002 -0.000001 -2.821125 -8.304353 35.271165 3.590725 -3.876625 56.964918 1.849637 -2.988228 39.459137 0.000003 0.000001 -0.000001 -6.055260 -10.420611 51.003980 9.770744 -2.646436 64.230382 5.802186 -3.085886 44.336957 -0.000002 0.000000 0.000000 -81.544700 2.553723 22.829960 88.198158 4.926081 -4.779644 12.585046 -5.033520 0.199728 -0.011777 0.018036 0.054003 -0.000000 -0.000000 -0.000000 -43.045635 3.379780 5.485432 46.112154 3.732800 0.267933 -14.858805 -4.719295 2.507030 -18.195600 1.391096 -0.261262 -0.000000 -0.000000 0.000000 
-0.314234 104.952538 15.029984 30.195180 -21.717983 5.060751 15.382424 6.409345 -5.305647 4.029745 1.227231 -0.599439 0.000000 0.000000 0.000000 -10.285320 0.762047 3.923220 -2.852092 7.836789 -6.163745 -28.170350 4.307468 0.283356 0.000000 -0.000000 -0.000000 1.718142 -1.109379 11.529364 0.000000 0.000000 0.000000 -73.265479 13.679090 -35.280543 -210.646367 -84.574462 -212.480546 -56.352981 4.804343 15.957412 17.551590 -5.699208 -12.932269 10.850550 26.127721 8.644744 20.927023 51.115845 0.218661 -0.000002 -0.000002 -0.000002 13.980894 1.201554 -55.004371 0.370807 1.161710 -65.441887 1.983961 2.148010 -57.665102 -0.000000 0.000004 0.000002 7.504739 1.174512 -63.778517 1.807881 1.475658 -64.568019 0.130342 -0.912286 -43.272489 0.000001 -0.000001 0.000001 8.574308 2.179157 -75.148979 -0.207609 1.009270 -57.855056 0.443045 1.742142 -53.581304 -0.000000 -0.000002 -0.000000 10.030092 13.637104 -84.750230 0.877117 0.062341 -64.595462 1.141230 1.253138 -55.016327 0.000000 -0.000000 -0.000000 4.280024 20.150726 5.717932 0.000000 0.000000 0.000000 -22.945317 2.376926 38.931464 122.509838 76.439830 -127.618273 5.357767 7.052862 3.426947 15.011011 0.421156 -7.763761 -1.045730 -26.961161 6.336289 -4.772931 -5.239110 1.455201 -0.000003 0.000000 -0.000001 1.966055 -3.143427 26.765520 -1.949398 -1.946061 36.208796 -1.956021 -3.890164 30.704231 0.000000 -0.000005 0.000001 -1.319219 -4.630107 30.634672 0.107738 -4.267005 46.698727 -0.653393 -0.947319 30.840893 0.000000 0.000000 0.000000 -2.322595 -8.050477 32.533055 3.109237 -3.624314 54.449961 1.578659 -2.766522 37.126367 -0.000000 0.000001 -0.000004 -5.502866 -9.469272 46.733199 8.715325 -2.657340 61.799278 5.129184 -3.024046 41.487549 -0.000002 -0.000000 -0.000000 -83.794455 2.538649 21.797348 83.139098 5.735353 -4.198458 12.085510 -5.000151 -1.148020 -0.023416 0.036142 0.108010 -0.000001 -0.000000 -0.000000 -34.880492 3.324040 2.612277 43.168114 3.127447 0.068713 -12.911909 -7.953118 5.465226 -20.116116 2.643294 0.164189 0.000000 -0.000001 0.000000 
-0.925955 106.366425 23.802942 28.233866 -20.421376 5.023821 17.469520 7.120803 -7.974883 3.077292 1.862034 0.679605 0.000000 0.000000 0.000000 -9.831920 0.832859 4.395545 -4.861709 6.567926 -5.254667 -25.614985 3.813657 -0.693865 -0.000000 -0.000000 -0.000000 1.645534 -1.000236 9.830194 0.000000 0.000000 0.000000 -71.214489 12.734331 -32.673590 -207.557236 -81.794787 -208.883017 -60.947656 5.792297 18.734751 17.551592 -5.699211 -12.932268 10.850552 26.127724 8.644744 20.927023 51.115845 0.218658 0.000000 0.000001 -0.000001 13.980895 1.201552 -55.004371 0.370808 1.161711 -65.441893 1.983960 2.148005 -57.665102 -0.000000 -0.000002 -0.000001 7.504740 1.174512 -63.778524 1.807885 1.475657 -64.568019 0.130341 -0.912282 -43.272489 -0.000000 -0.000003 -0.000000 8.574309 2.179152 -75.148979 -0.207612 1.009272 -57.855056 0.443044 1.742140 -53.581304 0.000001 -0.000002 -0.000000 10.030092 13.637105 -84.750230 0.877119 0.062342 -64.595455 1.141229 1.253136 -55.016323 0.000001 0.000000 0.000000 3.982595 19.709896 3.730237 0.000000 0.000000 0.000000 -24.454314 4.678999 37.090536 140.273398 71.780425 -145.773312 5.361435 -0.110374 4.820066 13.153467 0.459012 -6.994876 -0.426182 -24.662056 5.664077 -3.761620 -5.872803 0.952487 -0.000001 0.000000 -0.000001 1.770440 -2.830794 24.446787 -1.805897 -1.664660 33.469358 -1.914217 -3.378676 27.400444 -0.000001 0.000000 -0.000000 -0.886119 -4.086499 27.574570 0.038917 -3.788285 45.183894 -0.627287 -0.798098 26.514900 0.000000 0.000003 0.000000 -1.777066 -7.831446 29.587717 2.625442 -3.317443 51.745073 1.311583 -2.511135 34.616280 -0.000001 0.000002 -0.000002 -4.811193 -8.567994 42.150685 7.604476 -2.580014 59.179266 4.431022 -2.894461 38.424814 -0.000002 0.000000 -0.000001 -84.145219 3.252006 20.450918 76.129828 6.831844 -3.608018 11.363054 -4.906684 -2.534897 -0.035092 0.054250 0.162017 -0.000004 -0.000000 -0.000000 -26.241297 3.186261 -0.105645 38.637663 2.244073 -0.112071 -8.965865 -10.690357 8.967876 -21.659812 3.872413 0.755724 0.000000 0.000000 0.000000 
